<?xml version="1.0" encoding="UTF-8" standalone="no"?>
<!-- Created with Inkscape (http://www.inkscape.org/) -->

<svg
   version="1.1"
   id="svg1"
   width="500"
   height="500"
   viewBox="0 0 500 500"
   sodipodi:docname="14 Peaks Logo plain (1).svg"
   inkscape:export-filename="14 Peaks Logo plain (1).pdf"
   inkscape:export-xdpi="96"
   inkscape:export-ydpi="96"
   inkscape:version="1.4 (e7c3feb1, 2024-10-09)"
   xmlns:inkscape="http://www.inkscape.org/namespaces/inkscape"
   xmlns:sodipodi="http://sodipodi.sourceforge.net/DTD/sodipodi-0.dtd"
   xmlns="http://www.w3.org/2000/svg"
   xmlns:svg="http://www.w3.org/2000/svg">
  <sodipodi:namedview
     id="namedview1"
     pagecolor="#ffffff"
     bordercolor="#000000"
     borderopacity="0.25"
     inkscape:showpageshadow="2"
     inkscape:pageopacity="0.0"
     inkscape:pagecheckerboard="0"
     inkscape:deskcolor="#d1d1d1"
     inkscape:zoom="1.2776659"
     inkscape:cx="221.10632"
     inkscape:cy="210.14884"
     inkscape:window-width="1264"
     inkscape:window-height="848"
     inkscape:window-x="0"
     inkscape:window-y="38"
     inkscape:window-maximized="0"
     inkscape:current-layer="svg1" />
  <defs
     id="defs1">
    <clipPath
       clipPathUnits="userSpaceOnUse"
       id="clipPath6">
      <path
         d="M 468.40887,443.49982 H 1093.4089 V 1118.4998 H 468.40887 Z"
         transform="matrix(0.43904,0,0,0.43891181,-208.55022,-193.59005)"
         clip-rule="evenodd"
         id="path6" />
    </clipPath>
  </defs>
  <g
     id="g1">
    <path
       id="path5"
       d="M 92.39621,294.58487 C 71.499718,290.59695 54.33305,284.08359 39.192635,274.39838 27.642796,267.01007 11.905253,251.58278 8.0562172,243.87582 2.5782642,232.90726 6.2973151,226.89299 15.562054,231.73775 c 1.737194,0.90841 8.364322,6.6036 14.726938,12.65594 15.62557,14.86363 27.840868,23.78029 41.899942,30.58528 18.926056,9.16074 31.400176,11.89701 54.985356,12.06134 22.0997,0.15393 34.01236,-2.05743 47.71962,-8.85836 10.94541,-5.43067 13.7321,-8.55756 13.76922,-15.45029 0.12122,-22.48409 34.52303,-54.3363 58.6857,-54.3363 6.87879,0 8.6068,0.58349 12.11385,4.09059 11.95782,11.95779 6.90136,34.68927 -12.0886,54.34495 -14.87722,15.39871 -30.74421,20.91309 -46.19305,16.05384 l -7.96947,-2.50672 -16.13551,5.37659 c -8.87454,2.95712 -19.82857,6.31372 -24.34235,7.45904 -11.72621,2.97553 -47.65277,3.792 -60.337483,1.37122 z M 229.68767,273.1246 c 12.43764,-6.22653 28.35405,-26.58665 28.35405,-36.27023 0,-1.62131 -1.88455,0.86293 -4.2889,5.65366 -6.13958,12.23332 -19.61709,25.81356 -30.75604,30.99041 -7.27144,3.37943 -8.06062,4.03611 -3.99838,3.32709 2.78363,-0.4859 7.59379,-2.15127 10.68925,-3.70093 z M 118.49799,250.70386 c -15.41658,-1.38805 -30.212345,-6.14228 -42.22971,-13.56945 -7.156525,-4.42297 -4.98362,-4.75723 4.05072,-0.62313 19.253411,8.81031 47.64443,11.30243 67.823,5.95341 9.00288,-2.38653 28.54022,-11.08073 36.15124,-16.08743 1.98833,-1.30795 0.68688,0.29367 -2.89207,3.55917 -15.06001,13.74097 -42.03403,22.64641 -62.90316,20.76743 z M 248.04776,102.9621 C 246.52769,101.44204 240.46834,92.819969 234.58255,83.801956 228.69678,74.783928 220.13795,63.369232 215.563,58.435982 191.45335,32.438171 157.97627,17.573322 123.55916,17.583488 c -22.30591,0.0072 -31.795488,3.394803 -31.828752,11.364354 -0.0152,3.42802 -1.223198,4.189392 -13.979821,8.80466 -16.43264,5.945214 -31.480102,15.422406 -44.954109,28.312943 -9.589777,9.174515 -11.90681,10.697555 -11.90681,7.826637 0,-2.978164 24.379123,-25.471473 33.674228,-31.069393 5.282444,-3.181309 9.627548,-6.597599 9.655846,-7.591755 0.07326,-2.579868 -0.245156,-2.462604 -11.784149,4.33815 C 46.528069,43.050808 36.395985,51.23011 29.061247,58.438408 21.195,66.16906 15.593209,70.640762 14.78614,69.833694 c -2.147484,-2.147483 22.8979,-26.359985 35.386025,-34.20927 9.860073,-6.197449 13.370945,-9.431292 10.239273,-9.431292 -2.053665,0 -17.480278,9.376025 -25.061279,15.231814 -4.374298,3.378837 -12.157948,10.519066 -17.297005,15.86721 -11.0375481,11.486592 -13.6606093,9.986332 -3.32947,-1.904316 8.16717,-9.400013 20.175856,-19.52256 33.279398,-28.052355 8.173466,-5.32055 11.041634,-8.372594 7.868195,-8.372594 -1.914486,0 -17.783623,9.900142 -25.909765,16.164108 C 25.804771,38.3312 18.170284,45.440556 12.996002,50.925564 7.8217187,56.410572 2.9030991,60.898312 2.0657196,60.898312 -2.9431052,60.898312 18.43248,37.829014 34.569984,25.818535 47.043888,16.534727 58.19873,10.452296 72.89698,4.9198866 l 9.386711,-3.5331474 2.416558,2.9843283 c 4.082771,5.0419832 8.367149,5.7516305 25.966281,4.300941 48.86841,-4.0282464 94.39657,13.4883845 126.98678,48.8572385 16.05285,17.421521 25.69157,39.794743 19.71775,45.768553 -3.16839,3.16839 -5.91822,3.06938 -9.3233,-0.3357 z M 62.825092,77.641418 C 69.193703,70.651276 82.998276,62.495789 95.133614,58.554146 111.54974,53.222073 132.54396,52.913528 148.142,57.775101 c 10.18826,3.175468 26.8811,11.429298 25.63508,12.675346 -0.31099,0.310974 -4.72503,-1.124809 -9.80905,-3.19062 -30.71724,-12.481526 -68.954137,-9.359261 -94.27847,7.698364 -9.664658,6.509811 -10.730293,6.926346 -6.864464,2.683227 z"
       style="fill:#000000;fill-opacity:1;fill-rule:nonzero;stroke:none"
       transform="matrix(0.72886295,0,0,0.72907581,152.00453,141.14182)"
       clip-path="url(#clipPath6)" />
    <g
       id="g6">
      <path
         id="path7"
         d="m 5.1509277,-24.925233 c -0.2860741,0.143037 -1.0370187,0.47828 -2.2528336,1.001259 -0.2056158,0.07152 -0.5274492,0.196676 -0.9655002,0.375472 -0.4425209,0.178797 -0.8001135,0.348653 -1.07277788,0.50063 v -4.791741 C 3.9440525,-29.435371 5.8348236,-30.593077 6.5276593,-31.308262 H 11.605475 V -0.00102648 H 5.1509277 Z M 28.327401,-7.0277218 h -9.619242 v -4.7559822 l 8.153112,-19.524558 h 7.509445 v 19.470919 h 2.896501 v 4.8096212 h -2.896501 v 7.02669532 h -6.043315 z m 0,-4.8096212 v -13.016372 l -4.702344,13.016372 z m 27.306668,-19.470919 h 10.513223 c 2.753463,0 4.809621,0.782234 6.168473,2.342232 1.367792,1.551058 2.056158,3.799422 2.056158,6.740621 0,3.352431 -0.795644,5.676783 -2.377991,6.973056 -1.586818,1.300744 -3.808362,1.94888 -6.669103,1.94888 h -2.771343 v 13.30244652 h -6.919417 z m 9.22589,13.177289 c 1.215815,0 2.020398,-0.321834 2.41375,-0.9655 0.402292,-0.643667 0.607907,-1.725385 0.607907,-3.254093 0,-1.381202 -0.196676,-2.404811 -0.590027,-3.075297 -0.384412,-0.679426 -1.206876,-1.019139 -2.46739,-1.019139 h -2.270713 v 8.314029 z m 15.55081,-13.177289 h 14.07127 v 4.720223 h -7.151853 v 7.75976 h 5.453288 v 4.791741 h -5.453288 v 9.3510479 h 7.223371 v 4.68446362 H 80.410769 Z m 24.387821,0 h 7.88491 l 5.84664,31.30723552 h -6.38302 L 111.1101,-6.6164903 h -4.61295 l -1.07278,6.61546382 h -6.543942 z m 5.64996,20.561577 -1.66281,-12.211789 -1.6628,12.211789 z m 13.95505,-20.561577 h 6.91942 v 12.783937 l 5.25661,-12.783937 h 6.7585 l -5.793,14.142789 6.0612,17.16444652 h -7.0267 l -4.52354,-13.83883552 -0.73307,1.233695 v 12.60514052 h -6.91942 z m 32.28168,31.77210595 c -2.99484,0 -5.22085,-0.79117372 -6.68698,-2.37799105 -1.45719,-1.5823474 -2.23049,-4.1033755 -2.32436,-7.5630843 l 5.91816,-0.8761016 c 0.0224,1.9801688 0.25479,3.4060695 0.69731,4.2732316 0.45146,0.8582224 1.13088,1.2873335 2.03828,1.2873335 1.15323,0 1.73432,-0.7598843 1.73432,-2.2885928 0,-1.2024053 -0.2816,-2.2394239 -0.84034,-3.1110563 -0.5498,-0.880572 -1.41249,-1.828192 -2.59255,-2.842861 l -2.69982,-2.342232 c -1.34992,-1.144296 -2.3914,-2.351172 -3.12894,-3.629565 -0.72859,-1.273924 -1.09066,-2.789223 -1.09066,-4.541427 0,-2.619366 0.77777,-4.639764 2.34224,-6.061195 1.55999,-1.416961 3.70555,-2.127676 6.43666,-2.127676 2.95461,0 4.97054,0.867162 6.04332,2.592546 1.07278,1.729855 1.64492,3.826242 1.71644,6.293631 l -5.95391,0.733065 c -0.0492,-1.618107 -0.19668,-2.780283 -0.447,-3.486528 -0.24137,-0.715186 -0.76882,-1.072778 -1.59128,-1.072778 -0.59897,0 -1.0549,0.259254 -1.37673,0.768824 -0.32184,0.500629 -0.48275,1.054898 -0.48275,1.662806 0,1.063838 0.2369,1.957819 0.71518,2.681944 0.47381,0.715186 1.24264,1.537649 2.30647,2.46739 l 2.57467,2.288592 c 1.54659,1.314153 2.74452,2.699825 3.59381,4.165955 0.85822,1.46613 1.28733,3.2093937 1.28733,5.2208522 0,1.4661299 -0.34865,2.8026324 -1.03702,4.0050376 -0.67942,1.1934654 -1.64045,2.1410859 -2.87862,2.84286149 -1.22922,0.68836583 -2.65512,1.03701866 -4.27323,1.03701866 z m 0,0"
         style="fill:#000000;fill-opacity:1;fill-rule:nonzero;stroke:none"
         aria-label="14 PEAKS"
         transform="matrix(0.87389942,0,0,0.87389942,177.49861,246.97355)" />
    </g>
    <g
       id="g8">
      <path
         id="path9"
         d="M 0.75538886,1.1856787e-4 V -8.7241617 H 2.6065132 v 3.5994084 H 6.3430418 V -8.7241617 H 8.1941661 V 1.1856787e-4 H 6.3430418 V -3.5992898 H 2.6065132 V 1.1856787e-4 Z M 16.14286,-8.7241617 V 1.1856787e-4 H 14.291735 V -8.7241617 Z m 6.097569,0 h 2.279625 l 2.399606,5.8618936 h 0.10284 l 2.399605,-5.8618936 h 2.279626 V 1.1856787e-4 H 29.919167 V -5.6732346 h -0.0857 l -2.245345,5.63907309 H 26.371178 L 24.108693,-5.7075147 h -0.06856 V 1.1856787e-4 H 22.240429 Z M 39.423319,1.1856787e-4 H 37.452214 L 40.451721,-8.7241617 h 2.382465 L 45.850833,1.1856787e-4 H 43.862589 L 43.211267,-1.988126 H 40.07464 Z M 40.537421,-3.4278894 h 2.211065 l -1.062682,-3.3080277 h -0.06856 z M 51.472766,1.1856787e-4 V -8.7241617 h 1.851125 v 7.1988167 h 3.736528 V 1.1856787e-4 Z m 12.902165,0 H 62.403827 L 65.403334,-8.7241617 h 2.382465 L 70.802446,1.1856787e-4 H 68.814202 L 68.16288,-1.988126 H 65.026253 Z M 65.489034,-3.4278894 h 2.211065 l -1.062682,-3.3080277 h -0.06856 z m 10.421144,-5.2962723 h 2.073945 l 1.988245,3.7536687 h 0.0857 l 1.988244,-3.7536687 h 2.073945 L 80.93221,-3.0850886 V 1.1856787e-4 H 79.098226 V -3.0850886 Z M 91.207664,1.1856787e-4 H 89.236559 L 92.236066,-8.7241617 h 2.382466 L 97.635179,1.1856787e-4 H 95.646934 L 94.995612,-1.988126 H 91.858985 Z M 92.321766,-3.4278894 h 2.211065 l -1.062682,-3.3080277 h -0.06856 z M 110.55877,-8.7241617 V 1.1856787e-4 h -1.59403 L 105.1768,-5.4846942 h -0.0686 V 1.1856787e-4 h -1.85113 V -8.7241617 h 1.62831 l 3.75366,5.4848128 h 0.0857 V -8.7241617 Z M 124.03084,1.1856787e-4 V -8.7241617 h 5.77619 v 1.5254636 h -3.92507 v 2.0739448 h 3.54799 v 1.5254635 h -3.54799 V 1.1856787e-4 Z M 141.02947,-8.7241617 h 1.83399 v 5.7590534 c 0,0.6641765 -0.15426,1.2255128 -0.46278,1.6797239 -0.30852,0.45849605 -0.73702,0.80558185 -1.28551,1.04554241 -0.53991,0.23996055787 -1.16123,0.35994084 -1.86826,0.35994084 -0.69846,0 -1.31978,-0.11998028213 -1.86826,-0.35994084 -0.54849,-0.23996056 -0.97699,-0.58704636 -1.28551,-1.04554241 -0.30852,-0.4542111 -0.46278,-1.0155474 -0.46278,-1.6797239 v -5.7590534 h 1.85113 v 5.7076333 c 0,0.4713511 0.16283,0.8355769 0.49706,1.0969625 0.3428,0.2656706 0.76273,0.3942209 1.26836,0.3942209 0.52277,0 0.95127,-0.1285503 1.2855,-0.3942209 0.32995,-0.2613856 0.49706,-0.6256114 0.49706,-1.0969625 z m 12.67078,2.5024458 c -0.0343,-0.3428008 -0.18426,-0.6041864 -0.44564,-0.7884418 -0.25282,-0.1928254 -0.5999,-0.2913807 -1.04554,-0.2913807 -0.44565,0 -0.78845,0.09427 -1.02841,0.2742407 -0.23996,0.1842554 -0.35994,0.4199309 -0.35994,0.7027416 -0.0128,0.3085207 0.11998,0.5441963 0.39422,0.7027416 0.27424,0.1628304 0.5999,0.2870957 0.97699,0.3770809 l 0.78844,0.1885404 c 0.50134,0.1156953 0.94698,0.2828107 1.33692,0.4970612 0.39851,0.2185355 0.71131,0.4970611 0.9427,0.8398619 0.22711,0.3342308 0.3428,0.7455918 0.3428,1.2340829 -0.0128,0.7884418 -0.31709,1.4226233 -0.90842,1.90254442 -0.59562,0.47135109 -1.42262,0.70274163 -2.4853,0.70274163 -1.06269,0 -1.91112,-0.23996056 -2.53673,-0.71988167 -0.6299,-0.47992108 -0.95556,-1.19123278 -0.97698,-2.14250498 h 1.78256 c 0.0343,0.437071 0.20568,0.7670168 0.5142,0.9941223 0.31709,0.2185355 0.71988,0.3256608 1.19981,0.3256608 0.46706,0 0.83986,-0.09427 1.1141,-0.2913807 0.28281,-0.2056805 0.4285,-0.4670661 0.4285,-0.7884418 0,-0.2956657 -0.13284,-0.5184862 -0.39422,-0.6684616 -0.25282,-0.1585454 -0.61704,-0.2956657 -1.09696,-0.4113609 l -0.94271,-0.2399606 c -0.73273,-0.1799704 -1.3155,-0.4627811 -1.74828,-0.8398619 -0.42422,-0.3856509 -0.63418,-0.8998521 -0.63418,-1.5426036 0,-0.5227712 0.1414,-0.9855523 0.4285,-1.3883432 0.28281,-0.398506 0.67275,-0.7070267 1.16552,-0.9255622 0.50135,-0.2142505 1.07125,-0.3256607 1.71401,-0.3256607 0.65132,0 1.21694,0.1156952 1.69686,0.3428007 0.48849,0.2185356 0.86557,0.5270563 1.13124,0.9255622 0.27424,0.3899359 0.41565,0.8398619 0.4285,1.3540631 z m 9.55986,-2.5024458 V 1.1856787e-4 h -1.85113 V -8.7241617 Z m 14.12339,4.3535701 c 0,0.9598423 -0.18426,1.7782792 -0.54848,2.4510257 -0.35566,0.6641766 -0.83986,1.17409274 -1.45691,1.52546355 -0.61704,0.3428008 -1.31121,0.5142012 -2.07394,0.5142012 -0.77987,0 -1.47404,-0.17568541 -2.09109,-0.53134124 -0.61704,-0.35137081 -1.10981,-0.86128701 -1.47404,-1.52546351 -0.35566,-0.6727466 -0.53134,-1.4826135 -0.53134,-2.4338857 0,-0.9469872 0.17568,-1.752569 0.53134,-2.4167456 0.36423,-0.6727465 0.857,-1.1826627 1.47404,-1.5254635 0.61705,-0.3513708 1.31122,-0.5313412 2.09109,-0.5313412 0.76273,0 1.4569,0.1799704 2.07394,0.5313412 0.61705,0.3428008 1.10125,0.852717 1.45691,1.5254635 0.36422,0.6641766 0.54848,1.4697584 0.54848,2.4167456 z m -1.86827,0 c 0,-0.9255621 -0.20568,-1.6283037 -0.61704,-2.1082249 -0.40279,-0.4884911 -0.93413,-0.7370217 -1.59402,-0.7370217 -0.67703,0 -1.21694,0.2485306 -1.6283,0.7370217 -0.4028,0.4799212 -0.59991,1.1826628 -0.59991,2.1082249 0,0.9255622 0.19711,1.6368738 0.59991,2.125365 0.41136,0.4927761 0.95127,0.7370217 1.6283,0.7370217 0.65989,0 1.19123,-0.2442456 1.59402,-0.7370217 0.41136,-0.4884912 0.61704,-1.1998028 0.61704,-2.125365 z m 15.11323,-4.3535701 V 1.1856787e-4 h -1.59402 L 185.24649,-5.4846942 h -0.0686 V 1.1856787e-4 h -1.85112 V -8.7241617 h 1.6283 l 3.75367,5.4848128 h 0.0857 v -5.4848128 z m 0,0"
         style="fill:#000000;fill-opacity:1;fill-rule:nonzero;stroke:none"
         aria-label="HIMALAYAN FUSION"
         transform="matrix(0.91160815,0,0,0.91160815,162.74498,267.39442)" />
    </g>
    <g
       id="g10">
      <path
         id="path11"
         d="M 0.75441151,-4.168747e-4 V -8.7246971 H 4.1995595 c 0.9941223,0 1.7654241,0.2571006 2.3139054,0.7713018 0.5484812,0.5142012 0.8227219,1.2083728 0.8227219,2.0739448 0,0.5956164 -0.1371203,1.1055326 -0.411361,1.5254635 -0.2656706,0.424216 -0.6427515,0.7455918 -1.1312426,0.9598423 L 7.6447075,-4.168747e-4 H 5.6050428 L 3.9424589,-3.085624 H 2.6055358 V -4.168747e-4 Z M 2.6055358,-4.5768075 h 1.2512229 c 1.0498274,0 1.5768837,-0.432786 1.5768837,-1.302643 0,-0.8912821 -0.5313413,-1.3369231 -1.5940237,-1.3369231 H 2.6055358 Z M 16.159022,0.1195634 c -0.664176,0 -1.242653,-0.13712031 -1.731144,-0.41136095 -0.479921,-0.27424064 -0.852717,-0.65989153 -1.114102,-1.16552275 -0.265671,-0.5013461 -0.394221,-1.0969625 -0.394221,-1.7825641 0,-0.6727465 0.12855,-1.2597929 0.394221,-1.7654241 0.261385,-0.5142012 0.625611,-0.9127071 1.096962,-1.1998028 0.479921,-0.2828106 1.036973,-0.428501 1.679724,-0.428501 0.582761,0 1.101248,0.1285503 1.559744,0.3770809 0.467066,0.2399606 0.839862,0.6084714 1.114102,1.0969626 0.274241,0.4927761 0.411361,1.1098175 0.411361,1.8511243 v 0.4970611 h -4.47355 c 0,0.4927761 0.12855,0.8827121 0.394221,1.1655227 0.27424,0.2742406 0.638466,0.411361 1.096962,0.411361 0.308521,0 0.569907,-0.05999 0.788442,-0.1885405 0.214251,-0.1242653 0.368511,-0.3128057 0.462781,-0.5656213 l 1.679724,0.1199803 c -0.12855,0.6084714 -0.454211,1.09267753 -0.976982,1.45690337 C 17.633066,-0.056122 16.968889,0.1195634 16.159022,0.1195634 Z M 14.702119,-3.925486 h 2.759546 c 0,-0.3856509 -0.12855,-0.7070266 -0.377081,-0.9598422 -0.252815,-0.2613856 -0.574191,-0.3942209 -0.959842,-0.3942209 -0.411361,0 -0.749877,0.1328353 -1.011262,0.3942209 -0.252816,0.2656706 -0.389936,0.5827613 -0.411361,0.9598422 z m 15.683136,-0.7541617 -1.662584,0.1028402 c -0.04713,-0.2056805 -0.16283,-0.3813659 -0.3428,-0.5313412 -0.184256,-0.1585454 -0.437071,-0.2399606 -0.754162,-0.2399606 -0.274241,0 -0.514201,0.064275 -0.719882,0.1885405 -0.19711,0.1156952 -0.287096,0.2699556 -0.27424,0.462781 -0.01286,0.1628304 0.04285,0.2999507 0.1714,0.411361 0.13712,0.1028402 0.351371,0.1842554 0.651321,0.2399605 l 1.182663,0.2399606 c 1.255508,0.2656706 1.88969,0.857002 1.902545,1.7825641 0,0.424216 -0.128551,0.8012969 -0.377081,1.13124266 -0.252816,0.32137574 -0.599902,0.57419133 -1.045543,0.75416175 -0.437071,0.16711538 -0.934132,0.25710059 -1.491183,0.25710059 -0.869857,0 -1.559744,-0.1756854 -2.073945,-0.53134123 -0.514201,-0.36422584 -0.818437,-0.86128697 -0.908422,-1.49118347 l 1.799704,-0.0857 c 0.04285,0.2656706 0.1714,0.4627811 0.377081,0.5999014 0.21425,0.1371203 0.484206,0.2056805 0.805582,0.2056805 0.317091,0 0.574191,-0.05999 0.771302,-0.1885405 0.192825,-0.1242652 0.29138,-0.2828106 0.29138,-0.4799211 -0.01285,-0.3170907 -0.29138,-0.5356262 -0.839862,-0.6513215 L 26.717287,-2.725683 c -1.268363,-0.2485306 -1.89826,-0.874142 -1.885405,-1.8682643 -0.01286,-0.6256115 0.231391,-1.1226726 0.737022,-1.4911835 0.514201,-0.3642258 1.186948,-0.5484813 2.022525,-0.5484813 0.831292,0 1.482613,0.1799705 1.953964,0.5313413 0.479921,0.3428008 0.758447,0.8184369 0.839862,1.4226231 z m 9.354177,-1.8682644 v 1.3712032 h -1.216943 v 3.1709074 c 0,0.2528156 0.05142,0.424216 0.15426,0.5142012 0.111411,0.081415 0.261386,0.1199802 0.445641,0.1199802 0.08999,0 0.175686,-0.00429 0.257101,-0.01714 0.08998,-0.021425 0.158545,-0.038565 0.205681,-0.05142 l 0.27424,1.35406313 C 39.765142,-0.05183699 39.640877,-0.0132719 39.482331,0.01672317 39.319501,0.05100324 39.12239,0.07242829 38.88243,0.08528332 38.218253,0.1195634 37.686912,-0.01755691 37.288406,-0.32607763 36.885615,-0.64316837 36.69279,-1.1230895 36.705645,-1.765841 v -3.4108679 h -0.908422 v -1.3712032 h 0.908422 v -1.5597436 h 1.816844 v 1.5597436 z m 7.635888,6.6674755 c -0.629897,0 -1.148383,-0.15854536 -1.559744,-0.47992111 -0.411361,-0.32994576 -0.617041,-0.82272189 -0.617041,-1.47404339 0,-0.4799211 0.11141,-0.857002 0.3428,-1.1312427 0.239961,-0.2828106 0.539912,-0.4884911 0.908422,-0.6170414 0.377081,-0.1371203 0.779872,-0.2228205 1.216943,-0.2571006 0.569907,-0.055705 0.976983,-0.1114102 1.216943,-0.1714004 0.239961,-0.06856 0.359941,-0.2099655 0.359941,-0.428501 v -0.01714 c 0,-0.2742406 -0.0857,-0.4799211 -0.257101,-0.6170414 -0.16283,-0.1456904 -0.394221,-0.2228206 -0.702741,-0.2228206 -0.334231,0 -0.595617,0.06856 -0.788442,0.2056805 -0.197111,0.1371203 -0.321376,0.3213758 -0.377081,0.5484813 l -1.679724,-0.1371203 c 0.124265,-0.6041864 0.432786,-1.0798225 0.925562,-1.4226233 0.488491,-0.3513708 1.131243,-0.5313413 1.919685,-0.5313413 0.488491,0 0.946987,0.081415 1.371203,0.2399606 0.419931,0.1499753 0.758447,0.3899359 1.011262,0.7198817 0.261386,0.3213757 0.394221,0.7370217 0.394221,1.2512229 V -4.168747e-4 H 49.346424 V -0.90883898 h -0.05142 c -0.16283,0.30852071 -0.402791,0.5613363 -0.719882,0.75416175 C 48.253747,0.02529318 47.855241,0.1195634 47.37532,0.1195634 Z m 0.514201,-1.2512229 c 0.398506,0 0.724167,-0.1114103 0.976982,-0.3428008 0.261386,-0.2271055 0.394221,-0.5142012 0.394221,-0.857002 v -0.7027416 c -0.06856,0.047135 -0.17997,0.09427 -0.325661,0.1371203 -0.149975,0.03428 -0.30852,0.064275 -0.479921,0.0857 -0.1714,0.02571 -0.325661,0.047135 -0.462781,0.06856 -0.308521,0.047135 -0.561336,0.1371203 -0.754162,0.2742406 -0.19711,0.1371203 -0.29138,0.3342308 -0.29138,0.5827614 0,0.2528155 0.0857,0.441356 0.2571,0.5656213 0.179971,0.1285503 0.411361,0.1885404 0.685602,0.1885408 z m 13.360661,-1.6625839 v -3.7536687 h 1.816844 V -4.168747e-4 H 61.318742 V -1.1830796 h -0.06856 c -0.149976,0.37708086 -0.394221,0.68560157 -0.737022,0.92556213 -0.334231,0.23139054 -0.745592,0.34280079 -1.234083,0.34280079 -0.664176,0 -1.199803,-0.21425049 -1.611163,-0.65132151 C 57.265123,-1.0116792 57.059442,-1.6158656 57.050872,-2.3828824 v -4.1650297 h 1.816844 v 3.8393689 c 0,0.3899359 0.102841,0.6984567 0.308521,0.9255622 0.20568,0.2185355 0.479921,0.3256607 0.822722,0.3256607 0.329946,0 0.621326,-0.1071252 0.874142,-0.3256607 0.248531,-0.2271055 0.377081,-0.5656213 0.377081,-1.0112624 z m 7.845853,2.7938265253 V -6.5479121 h 1.765424 v 1.1483827 h 0.06856 c 0.111411,-0.411361 0.308521,-0.7198817 0.582762,-0.9255621 0.28281,-0.2056805 0.617041,-0.3085208 0.994122,-0.3085208 0.1714,0 0.329946,0.02571 0.479921,0.06856 0.14569,0.03428 0.282811,0.09427 0.411361,0.1714004 l -0.548481,1.4911835 c -0.08142,-0.04285 -0.171401,-0.07713 -0.274241,-0.1028403 -0.10284,-0.03428 -0.218535,-0.05142 -0.342801,-0.05142 -0.368511,0 -0.681316,0.1285503 -0.942702,0.3770809 -0.252815,0.2528156 -0.377081,0.5784763 -0.377081,0.9769822 V -4.168747e-4 Z M 80.695557,0.1195634 c -0.629897,0 -1.148383,-0.15854536 -1.559744,-0.47992111 -0.411361,-0.32994576 -0.617041,-0.82272189 -0.617041,-1.47404339 0,-0.4799211 0.11141,-0.857002 0.342801,-1.1312427 0.23996,-0.2828106 0.539911,-0.4884911 0.908422,-0.6170414 0.377081,-0.1371203 0.779872,-0.2228205 1.216943,-0.2571006 0.569906,-0.055705 0.976982,-0.1114102 1.216942,-0.1714004 0.239961,-0.06856 0.359941,-0.2099655 0.359941,-0.428501 v -0.01714 c 0,-0.2742406 -0.0857,-0.4799211 -0.2571,-0.6170414 -0.162831,-0.1456904 -0.394221,-0.2228206 -0.702742,-0.2228206 -0.334231,0 -0.595616,0.06856 -0.788442,0.2056805 -0.19711,0.1371203 -0.321376,0.3213758 -0.377081,0.5484813 l -1.679724,-0.1371203 c 0.124266,-0.6041864 0.432786,-1.0798225 0.925563,-1.4226233 0.488491,-0.3513708 1.131242,-0.5313413 1.919684,-0.5313413 0.488491,0 0.946987,0.081415 1.371203,0.2399606 0.419931,0.1499753 0.758447,0.3899359 1.011263,0.7198817 0.261385,0.3213757 0.39422,0.7370217 0.39422,1.2512229 V -4.168747e-4 H 82.666661 V -0.90883898 h -0.05142 c -0.16283,0.30852071 -0.402791,0.5613363 -0.719881,0.75416175 -0.321376,0.17997041 -0.719882,0.27424063 -1.199803,0.27424063 z m 0.514201,-1.2512229 c 0.398506,0 0.724167,-0.1114103 0.976982,-0.3428008 0.261386,-0.2271055 0.394221,-0.5142012 0.394221,-0.857002 v -0.7027416 c -0.06856,0.047135 -0.17997,0.09427 -0.32566,0.1371203 -0.149976,0.03428 -0.308521,0.064275 -0.479922,0.0857 -0.1714,0.02571 -0.32566,0.047135 -0.462781,0.06856 -0.30852,0.047135 -0.561336,0.1371203 -0.754161,0.2742406 -0.197111,0.1371203 -0.291381,0.3342308 -0.291381,0.5827614 0,0.2528155 0.0857,0.441356 0.257101,0.5656213 0.17997,0.1285503 0.41136,0.1885404 0.685601,0.1885408 z M 92.187954,-3.7883657 V -4.168747e-4 H 90.371109 V -6.5479121 h 1.731144 v 1.1655227 h 0.0857 c 0.14569,-0.3856509 0.38565,-0.6898866 0.719881,-0.9084221 0.342801,-0.2271055 0.758447,-0.3428008 1.251223,-0.3428008 0.672747,0 1.216943,0.2228206 1.628304,0.6684616 0.411361,0.437071 0.617041,1.0369724 0.617041,1.7997042 V -4.168747e-4 H 94.587559 V -3.8397858 c 0.0086,-0.3985059 -0.09427,-0.7113116 -0.308521,-0.9427022 -0.20568,-0.2271055 -0.492776,-0.3428008 -0.857002,-0.3428008 -0.36851,0 -0.664176,0.1199803 -0.891282,0.3599409 -0.23139,0.2313905 -0.3428,0.5570513 -0.3428,0.9769822 z M 105.8957,-6.5479121 v 1.3712032 h -1.21694 v 3.1709074 c 0,0.2528156 0.0514,0.424216 0.15426,0.5142012 0.11141,0.081415 0.26138,0.1199802 0.44564,0.1199802 0.09,0 0.17568,-0.00429 0.2571,-0.01714 0.09,-0.021425 0.15854,-0.038565 0.20568,-0.05142 l 0.27424,1.35406313 c -0.0943,0.03428008 -0.21853,0.07284517 -0.37708,0.10284024 -0.16283,0.03428007 -0.35994,0.05570512 -0.5999,0.06856015 -0.66418,0.03428008 -1.19552,-0.10284023 -1.59403,-0.41136095 -0.40279,-0.31709074 -0.59561,-0.79701187 -0.58276,-1.43976337 v -3.4108679 h -0.90842 V -6.547912 h 0.90842 v -1.5597436 h 1.81685 v 1.5597436 z m 15.8074,6.6674755 c -0.60847,0 -1.12696,-0.10712524 -1.55974,-0.30852071 -0.43707,-0.2142505 -0.7713,-0.50563117 -1.01126,-0.87414199 -0.23139,-0.3770809 -0.3428,-0.7927269 -0.3428,-1.2512229 0,-0.5013462 0.1414,-0.9255622 0.4285,-1.268363 0.29566,-0.3513708 0.6856,-0.6898866 1.16552,-1.0112623 -0.23139,-0.2956657 -0.4285,-0.6041864 -0.5999,-0.9255622 -0.16283,-0.3299457 -0.23996,-0.6898866 -0.23996,-1.0798225 0,-0.419931 0.0943,-0.7970118 0.29138,-1.1312426 0.20568,-0.3428008 0.4842,-0.6084714 0.83986,-0.8055819 0.36423,-0.2056804 0.77987,-0.3085207 1.25122,-0.3085207 0.46707,0 0.86557,0.098555 1.19981,0.2913807 0.3428,0.1842554 0.60418,0.437071 0.78844,0.7541617 0.19282,0.3085208 0.29138,0.6470365 0.29138,1.0112624 0,0.4113609 -0.10284,0.7884418 -0.30852,1.1312426 -0.20568,0.3342308 -0.49278,0.6298965 -0.857,0.8912821 l -0.51421,0.3599408 1.43977,1.6625839 c 0.11141,-0.2142505 0.20568,-0.4499261 0.27424,-0.7027417 0.0686,-0.2485305 0.10284,-0.5184862 0.10284,-0.8055818 h 1.49118 c 0,0.5827613 -0.0771,1.1098175 -0.22282,1.5768836 -0.13712,0.4584961 -0.32566,0.848432 -0.56562,1.1655227 l 1.31978,1.5083235253 h -1.90254 l -0.5142,-0.5827613553 c -0.32138,0.25281559 -0.68132,0.43707102 -1.07983,0.54848128 -0.38993,0.09855522 -0.77987,0.15426035 -1.16552,0.15426035 z m 1.25122,-1.7997042 -1.64544,-1.8339842 -0.0514,0.03428 c -0.23996,0.1714004 -0.41993,0.3513708 -0.53134,0.5313412 -0.1157,0.1842554 -0.1714,0.3599408 -0.1714,0.5313412 0,0.3085207 0.11141,0.5656213 0.3428,0.7713018 0.22711,0.2056805 0.53134,0.3085207 0.90842,0.3085207 0.38565,0 0.7713,-0.1114102 1.14838,-0.3428008 z m -1.30264,-3.7536687 0.46278,-0.3085207 c 0.41993,-0.2613856 0.63418,-0.5741913 0.63418,-0.9427022 0,-0.1714004 -0.0771,-0.3299457 -0.22282,-0.4799211 -0.13712,-0.1456903 -0.33423,-0.2228205 -0.58276,-0.2228205 -0.25281,0.012855 -0.45849,0.098555 -0.61704,0.2571006 -0.14997,0.1628304 -0.22282,0.3513708 -0.22282,0.5656213 0,0.1842554 0.0514,0.3685109 0.15426,0.5484813 0.10284,0.1842554 0.23139,0.3770808 0.39422,0.5827613 z m 17.45285,5.4333926253 V -8.7246971 h 3.49657 c 0.95984,0 1.67972,0.2142505 2.15964,0.6341815 0.48849,0.4113609 0.73702,0.9427021 0.73702,1.5940237 0,0.5142012 -0.14997,0.9341321 -0.44564,1.2512229 -0.29995,0.3213757 -0.67703,0.5313412 -1.13124,0.6341814 v 0.0857 c 0.32994,0.012855 0.63847,0.1028403 0.92556,0.2742407 0.29567,0.1714004 0.53563,0.4199309 0.71988,0.7370217 0.17997,0.3085207 0.27424,0.6770315 0.27424,1.0969625 0,0.4713511 -0.11569,0.8869971 -0.3428,1.2512229 -0.23139,0.35565585 -0.56562,0.64275151 -1.01126,0.85700201 -0.44564,0.20568048 -0.99412,0.3085207153 -1.64544,0.3085207153 z M 140.95565,-1.5087404 h 1.50833 c 0.5142,0 0.88271,-0.09427 1.1141,-0.2913806 0.23996,-0.2056805 0.35994,-0.4670661 0.35994,-0.7884419 0,-0.3642258 -0.13284,-0.6598915 -0.39422,-0.891282 -0.25282,-0.2271056 -0.5999,-0.3428008 -1.04554,-0.3428008 h -1.54261 z m 0,-3.5651282 h 1.3712 c 0.37709,0 0.68561,-0.09427 0.92557,-0.2913807 0.24853,-0.2056805 0.37708,-0.4799211 0.37708,-0.8227219 0,-0.3085207 -0.1157,-0.5570513 -0.3428,-0.7541618 -0.21854,-0.1928254 -0.52706,-0.2913807 -0.92557,-0.2913807 h -1.40548 z m 12.49509,5.193432 c -0.6299,0 -1.14838,-0.15854536 -1.55974,-0.47992111 -0.41136,-0.32994576 -0.61704,-0.82272189 -0.61704,-1.47404339 0,-0.4799211 0.11141,-0.857002 0.3428,-1.1312427 0.23996,-0.2828106 0.53991,-0.4884911 0.90842,-0.6170414 0.37708,-0.1371203 0.77987,-0.2228205 1.21694,-0.2571006 0.56991,-0.055705 0.97698,-0.1114102 1.21694,-0.1714004 0.23996,-0.06856 0.35995,-0.2099655 0.35995,-0.428501 v -0.01714 c 0,-0.2742406 -0.0857,-0.4799211 -0.25711,-0.6170414 -0.16283,-0.1456904 -0.39422,-0.2228206 -0.70274,-0.2228206 -0.33423,0 -0.59561,0.06856 -0.78844,0.2056805 -0.19711,0.1371203 -0.32137,0.3213758 -0.37708,0.5484813 l -1.67972,-0.1371203 c 0.12426,-0.6041864 0.43278,-1.0798225 0.92556,-1.4226233 0.48849,-0.3513708 1.13124,-0.5313413 1.91968,-0.5313413 0.48849,0 0.94699,0.081415 1.37121,0.2399606 0.41993,0.1499753 0.75844,0.3899359 1.01126,0.7198817 0.26138,0.3213757 0.39422,0.7370217 0.39422,1.2512229 v 4.4221302253 h -1.714 V -0.90883898 h -0.0514 c -0.16284,0.30852071 -0.4028,0.5613363 -0.71989,0.75416175 -0.32137,0.17997041 -0.71988,0.27424063 -1.1998,0.27424063 z m 0.5142,-1.2512229 c 0.39851,0 0.72417,-0.1114103 0.97698,-0.3428008 0.26139,-0.2271055 0.39423,-0.5142012 0.39423,-0.857002 v -0.7027416 c -0.0686,0.047135 -0.17998,0.09427 -0.32567,0.1371203 -0.14997,0.03428 -0.30852,0.064275 -0.47992,0.0857 -0.1714,0.02571 -0.32566,0.047135 -0.46278,0.06856 -0.30852,0.047135 -0.56133,0.1371203 -0.75416,0.2742406 -0.19711,0.1371203 -0.29138,0.3342308 -0.29138,0.5827614 0,0.2528155 0.0857,0.441356 0.2571,0.5656213 0.17997,0.1285503 0.41136,0.1885404 0.6856,0.1885408 z m 9.16564,1.1312426253 V -6.5479121 h 1.76542 v 1.1483827 h 0.0686 c 0.11141,-0.411361 0.30852,-0.7198817 0.58276,-0.9255621 0.28281,-0.2056805 0.61705,-0.3085208 0.99413,-0.3085208 0.1714,0 0.32994,0.02571 0.47992,0.06856 0.14569,0.03428 0.28281,0.09427 0.41136,0.1714004 l -0.54848,1.4911835 c -0.0814,-0.04285 -0.1714,-0.07713 -0.27424,-0.1028403 -0.10284,-0.03428 -0.21854,-0.05142 -0.3428,-0.05142 -0.36852,0 -0.68132,0.1285503 -0.94271,0.3770809 -0.25281,0.2528156 -0.37708,0.5784763 -0.37708,0.9769822 v 3.7022486253 z m 0,0"
         style="fill:#000000;fill-opacity:1;fill-rule:nonzero;stroke:none"
         aria-label="Restaurant &amp; Bar"
         transform="matrix(0.91160815,0,0,0.91160815,173.61305,285.06288)" />
    </g>
    <g
       id="g12">
      <path
         id="path12"
         d="M 112.41813,114.47994 H 262.58187 V 276.60003 H 112.41813 Z"
         style="display:inline;fill:#000000;fill-opacity:0;fill-rule:nonzero;stroke:none"
         transform="matrix(1.3333333,0,0,-1.3333333,0,510.71997)" />
    </g>
  </g>
</svg>
